<svg preserveAspectRatio="none" width="100%" height="100%" overflow="visible" style="display: block;" viewBox="0 0 332 43.0181" fill="none" xmlns="http://www.w3.org/2000/svg">
<g id="Group 2">
<path id="Exclude" d="M308.664 0.456458C320.397 -0.655522 330.809 7.96432 331.906 19.7016C333.004 31.4387 324.375 41.8408 312.639 42.9262C300.923 44.0096 290.543 35.3945 289.446 23.6762C288.35 11.9579 296.951 1.56678 308.664 0.456458ZM320.068 9.91349C317.427 12.7596 314.71 15.7859 312.027 18.5717C309.972 15.8017 307.578 12.7309 305.627 9.93204L298.323 9.92619C301.267 14.0784 304.849 18.9351 307.974 22.9535C304.857 26.3252 301.294 29.9956 298.305 33.4223L300.311 33.4818C303.208 30.4315 306.078 27.3559 308.922 24.2553L315.74 33.4369L322.549 33.4438L322.846 33.3149C322.476 32.4498 319.937 29.2158 319.234 28.2797L312.984 19.8539C315.997 16.6236 319.236 13.2425 322.15 9.95353L320.068 9.91349ZM304.742 11.5238L319.854 31.8422L316.6 31.849C311.597 25.1306 306.401 18.2836 301.522 11.4936L304.742 11.5238Z" fill="var(--fill-0, white)"/>
<path id="Exclude_2" d="M250.741 0.101563C262.461 -1.03791 272.886 7.54177 274.025 19.2646C275.165 30.9875 266.588 41.4151 254.868 42.5557C243.148 43.6958 232.723 35.1159 231.583 23.3926C230.443 11.6692 239.021 1.24105 250.741 0.101563ZM262.43 11.5527C256.489 11.4451 250.542 11.5286 244.6 11.5176C243.819 11.5162 242.931 11.5287 242.159 11.6152C240.935 12.1287 239.848 12.802 239.332 14.1045C238.677 15.7584 238.649 27.0254 239.365 28.5869C239.779 29.4887 240.476 30.3557 241.428 30.7119C242.15 30.9822 242.962 31.0888 243.728 31.1357C247.378 31.359 251.15 31.1758 254.815 31.1709C257.4 31.1676 261.077 31.4749 263.476 31.002C265.415 30.2614 266.508 28.9894 266.655 26.8457C266.787 24.9222 266.591 22.9438 266.635 21.0137C266.613 19.0841 266.823 17.1021 266.572 15.1943C266.298 13.1074 264.515 11.5904 262.43 11.5527ZM249.889 17.1934C251.745 18.0679 255.223 20.213 257.119 21.3125L254.68 22.7754C253.083 23.7222 251.475 24.6505 249.855 25.5586L249.889 17.1934Z" fill="var(--fill-0, white)"/>
<path id="Exclude_3" d="M192.92 0.0967452C204.688 -1.01919 215.118 7.65545 216.169 19.4327C217.219 31.2099 208.49 41.5934 196.71 42.5792C185.021 43.5572 174.739 34.9083 173.696 23.2227C172.654 11.5374 181.243 1.20412 192.92 0.0967452ZM182.548 17.0196C182.404 18.3771 182.484 21.7407 182.496 23.3292C182.524 26.8956 182.438 30.6095 182.513 34.1563L187.745 34.1612C188.242 33.2889 187.953 19.1012 187.95 16.8975L182.917 16.8516L182.548 17.0196ZM205.714 18.1524C204.506 16.7371 202.373 16.313 200.551 16.4942C198.499 16.8852 197.746 17.5141 196.474 19.1505L196.477 16.8858C194.657 16.855 192.836 16.8515 191.016 16.8751C190.974 22.4481 190.884 28.6168 191.013 34.1563L196.471 34.1592C196.467 31.431 195.96 24.0714 197.192 22.0821C203.681 16.0737 202.168 31.7101 202.229 34.1553L207.679 34.1563C207.7 29.7352 208.662 21.6076 205.714 18.1524ZM187.355 9.28132C186.539 8.50966 185.367 8.24538 184.299 8.59186C182.727 9.10214 181.84 10.7658 182.294 12.3555C182.748 13.9455 184.379 14.8911 185.983 14.4942C187.073 14.2246 187.929 13.3811 188.215 12.295C188.501 11.2089 188.171 10.053 187.355 9.28132Z" fill="var(--fill-0, white)"/>
<path id="Subtract" d="M134.493 0.158344C146.164 -1.25924 156.78 7.04229 158.222 18.714C159.662 30.3858 151.386 41.0217 139.719 42.4874C128.019 43.9576 117.349 35.6483 115.904 23.9425C114.457 12.2366 122.786 1.58028 134.493 0.158344ZM137.631 8.21498L137.611 21.0226C137.611 22.9 137.737 25.338 137.527 27.1642C137.193 30.0588 133.325 31.3383 131.249 29.0294C130.539 28.2474 130.178 27.2094 130.252 26.1554C130.308 25.2318 130.728 24.3683 131.423 23.757C132.45 22.8613 133.545 22.7458 134.823 22.8546C134.946 22.8652 135.069 22.8765 135.192 22.8888L135.217 18.0822C132.529 17.9589 130.393 18.2945 128.306 20.1828C126.72 21.6088 125.773 23.6143 125.68 25.7462C125.614 27.0786 125.803 28.2037 126.28 29.4376C127.412 31.6876 128.839 33.246 131.311 34.0539C133.399 34.7273 135.669 34.55 137.627 33.5607C139.54 32.5757 140.984 30.8718 141.643 28.8234C142.414 26.4106 142.076 19.9982 142.117 17.1466C144.698 18.5691 145.481 18.8605 148.453 19.1701L148.46 14.756C144.385 14.0889 142.455 12.3067 141.856 8.19252L137.631 8.21498Z" fill="var(--fill-0, white)"/>
<path id="Exclude_4" d="M76.8359 0.490234C88.5414 -0.798113 99.0697 7.66154 100.336 19.3721C101.602 31.0826 93.125 41.5971 81.415 42.8418C69.7359 44.0832 59.2571 35.6318 57.9941 23.9521C56.7313 12.2723 65.1615 1.77522 76.8359 0.490234ZM83.1641 7.82715C79.7876 7.92272 75.8839 7.64223 72.4551 7.88965C70.1895 8.23076 68.3387 9.07983 66.9482 10.9717C66.2289 11.9645 65.7437 13.108 65.5303 14.3154C64.9437 17.4668 65.375 23.3945 65.3389 26.7861C65.2206 37.8813 76.5562 35.2284 83.8604 35.4834C84.5574 35.5077 85.2358 35.4907 85.8662 35.4482C94.6044 34.0392 92.6743 26.5877 92.9873 20.2383C93.3553 12.7739 91.9991 7.57704 83.1641 7.82715ZM80.6748 10.1992C88.3639 10.1844 91.149 10.668 90.6182 19.5166C90.3147 24.5747 92.4187 31.5071 85.9023 33.0469C81.7613 33.3403 76.9345 33.0641 72.7559 33.0186C70.8073 32.9972 68.2577 31.1095 67.9648 29.1094C67.5554 25.9531 67.7886 22.6494 67.7344 19.4707C67.6604 15.1273 67.4231 11.3563 72.5586 10.2627C75.2636 10.2125 77.9693 10.1912 80.6748 10.1992ZM86.1143 20.3438C85.3822 16.502 81.6718 13.9829 77.832 14.7207C74.0003 15.4573 71.4886 19.1585 72.2188 22.9922C72.9491 26.8261 76.6464 29.345 80.4805 28.6201C84.3226 27.8936 86.8462 24.1858 86.1143 20.3438ZM78.1182 17.0938C80.6518 16.5102 83.1757 18.1029 83.7402 20.6416C84.3045 23.1804 82.6928 25.6931 80.1504 26.2383C77.6351 26.7777 75.156 25.1866 74.5977 22.6748C74.0392 20.163 75.6112 17.6712 78.1182 17.0938ZM88.2129 13.8682C88.0398 12.9736 87.1948 12.3725 86.293 12.502C85.6697 12.5917 85.1458 13.0174 84.9307 13.6094C84.7156 14.2015 84.8434 14.8638 85.2637 15.333C85.684 15.8021 86.3287 16.0017 86.9404 15.8525C87.8256 15.6366 88.3858 14.763 88.2129 13.8682Z" fill="var(--fill-0, white)"/>
<path id="Vector" d="M19.0994 0.866942C24.2461 0.432011 28.9069 1.34108 33.2682 4.1623C38.0501 7.23416 41.3889 12.046 42.5501 17.5361C43.7193 23.0582 42.5883 28.8101 39.4057 33.5077C35.6974 38.958 30.7913 41.5033 24.434 42.7637L24.4308 28.0833C26.0078 28.0485 27.6931 28.0771 29.278 28.0766C29.5887 26.167 29.8276 24.1159 30.0856 22.1892L24.3974 22.1731C24.3862 16.4948 24.0501 15.1784 30.3007 15.2074C30.3389 13.5903 30.3118 11.8885 30.3102 10.2643C28.8511 9.96416 27.3634 9.81634 25.8724 9.82321C17.7598 9.91853 17.927 16.1065 18.0114 22.1591L12.6749 22.1798C12.6598 24.1406 12.6629 26.1015 12.6848 28.0622C14.4344 28.0519 16.184 28.0558 17.9334 28.0739L17.8967 42.6462C14.1429 41.81 11.5412 40.9154 8.3922 38.5409C3.86262 35.1259 0.906035 30.0817 0.176326 24.5234C-0.554339 18.9562 1.00432 13.3325 4.50791 8.89441C8.16744 4.28287 13.2173 1.58062 19.0994 0.866942Z" fill="var(--fill-0, white)"/>
</g>
</svg>
